<mxfile host="app.diagrams.net" modified="2023-12-04T07:40:17.557Z" agent="Mozilla/5.0 (Windows NT 10.0; Win64; x64) AppleWebKit/537.36 (KHTML, like Gecko) Chrome/119.0.0.0 Safari/537.36" etag="Oq0BA0Zi2auYzKcj7P0r" version="22.1.5" type="google">
  <diagram name="Page-1" id="W5Ofy6QWzta4VhXIDo5U">
    <mxGraphModel grid="1" page="1" gridSize="10" guides="1" tooltips="1" connect="1" arrows="1" fold="1" pageScale="1" pageWidth="850" pageHeight="1100" math="0" shadow="0">
      <root>
        <mxCell id="0" />
        <mxCell id="1" parent="0" />
        <mxCell id="VRDPgGecHPYHlhuFZ8xe-19" style="edgeStyle=orthogonalEdgeStyle;rounded=0;orthogonalLoop=1;jettySize=auto;html=1;exitX=0.5;exitY=1;exitDx=0;exitDy=0;" edge="1" parent="1" source="VRDPgGecHPYHlhuFZ8xe-1" target="VRDPgGecHPYHlhuFZ8xe-5">
          <mxGeometry relative="1" as="geometry" />
        </mxCell>
        <mxCell id="VRDPgGecHPYHlhuFZ8xe-1" value="Tab 1" style="rounded=1;whiteSpace=wrap;html=1;" vertex="1" parent="1">
          <mxGeometry x="200" y="30" width="120" height="60" as="geometry" />
        </mxCell>
        <mxCell id="VRDPgGecHPYHlhuFZ8xe-2" value="Tab 2" style="rounded=1;whiteSpace=wrap;html=1;" vertex="1" parent="1">
          <mxGeometry x="620" y="40" width="120" height="60" as="geometry" />
        </mxCell>
        <mxCell id="VRDPgGecHPYHlhuFZ8xe-3" value="Tab 3" style="rounded=1;whiteSpace=wrap;html=1;" vertex="1" parent="1">
          <mxGeometry x="810" y="40" width="120" height="60" as="geometry" />
        </mxCell>
        <mxCell id="VRDPgGecHPYHlhuFZ8xe-4" value="Other Apps&lt;br&gt;(Report Designer, Viewer, etc....)" style="rounded=1;whiteSpace=wrap;html=1;" vertex="1" parent="1">
          <mxGeometry x="990" y="40" width="210" height="60" as="geometry" />
        </mxCell>
        <mxCell id="VRDPgGecHPYHlhuFZ8xe-23" style="edgeStyle=orthogonalEdgeStyle;rounded=0;orthogonalLoop=1;jettySize=auto;html=1;" edge="1" parent="1" source="VRDPgGecHPYHlhuFZ8xe-5" target="VRDPgGecHPYHlhuFZ8xe-15">
          <mxGeometry relative="1" as="geometry">
            <Array as="points">
              <mxPoint x="440" y="200" />
              <mxPoint x="440" y="635" />
            </Array>
          </mxGeometry>
        </mxCell>
        <mxCell id="VRDPgGecHPYHlhuFZ8xe-24" style="edgeStyle=orthogonalEdgeStyle;rounded=0;orthogonalLoop=1;jettySize=auto;html=1;entryX=0.5;entryY=0;entryDx=0;entryDy=0;" edge="1" parent="1" source="VRDPgGecHPYHlhuFZ8xe-5" target="VRDPgGecHPYHlhuFZ8xe-14">
          <mxGeometry relative="1" as="geometry">
            <mxPoint x="150" y="310" as="targetPoint" />
            <Array as="points">
              <mxPoint x="160" y="200" />
            </Array>
          </mxGeometry>
        </mxCell>
        <mxCell id="VRDPgGecHPYHlhuFZ8xe-5" value="Dirty" style="rhombus;whiteSpace=wrap;html=1;" vertex="1" parent="1">
          <mxGeometry x="220" y="160" width="80" height="80" as="geometry" />
        </mxCell>
        <mxCell id="VRDPgGecHPYHlhuFZ8xe-22" style="edgeStyle=orthogonalEdgeStyle;rounded=0;orthogonalLoop=1;jettySize=auto;html=1;exitX=0;exitY=0.5;exitDx=0;exitDy=0;entryX=1;entryY=0.75;entryDx=0;entryDy=0;" edge="1" parent="1" source="VRDPgGecHPYHlhuFZ8xe-6" target="VRDPgGecHPYHlhuFZ8xe-14">
          <mxGeometry relative="1" as="geometry">
            <Array as="points">
              <mxPoint x="640" y="375" />
            </Array>
          </mxGeometry>
        </mxCell>
        <mxCell id="VRDPgGecHPYHlhuFZ8xe-25" style="edgeStyle=orthogonalEdgeStyle;rounded=0;orthogonalLoop=1;jettySize=auto;html=1;" edge="1" parent="1" source="VRDPgGecHPYHlhuFZ8xe-6">
          <mxGeometry relative="1" as="geometry">
            <mxPoint x="800" y="530" as="targetPoint" />
          </mxGeometry>
        </mxCell>
        <mxCell id="VRDPgGecHPYHlhuFZ8xe-6" value="Dirty" style="rhombus;whiteSpace=wrap;html=1;" vertex="1" parent="1">
          <mxGeometry x="640" y="170" width="80" height="80" as="geometry" />
        </mxCell>
        <mxCell id="VRDPgGecHPYHlhuFZ8xe-7" value="Dirty" style="rhombus;whiteSpace=wrap;html=1;" vertex="1" parent="1">
          <mxGeometry x="830" y="170" width="80" height="80" as="geometry" />
        </mxCell>
        <mxCell id="VRDPgGecHPYHlhuFZ8xe-8" value="Dirty" style="rhombus;whiteSpace=wrap;html=1;" vertex="1" parent="1">
          <mxGeometry x="1055" y="200" width="80" height="80" as="geometry" />
        </mxCell>
        <mxCell id="VRDPgGecHPYHlhuFZ8xe-14" value="Logout" style="rounded=0;whiteSpace=wrap;html=1;" vertex="1" parent="1">
          <mxGeometry x="100" y="330" width="120" height="60" as="geometry" />
        </mxCell>
        <mxCell id="VRDPgGecHPYHlhuFZ8xe-20" value="" style="group" connectable="0" vertex="1" parent="1">
          <mxGeometry x="630" y="550" width="520" height="170" as="geometry" />
        </mxCell>
        <mxCell id="VRDPgGecHPYHlhuFZ8xe-15" value="Message&lt;br&gt;&lt;br&gt;" style="rounded=1;whiteSpace=wrap;html=1;" vertex="1" parent="VRDPgGecHPYHlhuFZ8xe-20">
          <mxGeometry width="520" height="170" as="geometry" />
        </mxCell>
        <mxCell id="VRDPgGecHPYHlhuFZ8xe-16" value="Logout&lt;span style=&quot;white-space: pre;&quot;&gt;&#x9;&lt;/span&gt;" style="rounded=1;whiteSpace=wrap;html=1;" vertex="1" parent="VRDPgGecHPYHlhuFZ8xe-20">
          <mxGeometry x="20" y="80" width="120" height="60" as="geometry" />
        </mxCell>
        <mxCell id="VRDPgGecHPYHlhuFZ8xe-17" value="Reload" style="rounded=1;whiteSpace=wrap;html=1;" vertex="1" parent="VRDPgGecHPYHlhuFZ8xe-20">
          <mxGeometry x="185" y="80" width="120" height="60" as="geometry" />
        </mxCell>
        <mxCell id="VRDPgGecHPYHlhuFZ8xe-18" value="Sigin In" style="rounded=1;whiteSpace=wrap;html=1;" vertex="1" parent="VRDPgGecHPYHlhuFZ8xe-20">
          <mxGeometry x="355" y="80" width="120" height="60" as="geometry" />
        </mxCell>
      </root>
    </mxGraphModel>
  </diagram>
</mxfile>
